HIERARCHY
ROOT Hips
{
	OFFSET -351.999878 -572.954773 89.312325
	CHANNELS 6 Xposition Yposition Zposition Zrotation Yrotation Xrotation
	JOINT Spine
	{
		OFFSET 0.000000 2.080078 8.814247
		CHANNELS 6 Xposition Yposition Zposition Zrotation Yrotation Xrotation
		JOINT Spine1
		{
			OFFSET 0.000000 0.000000 8.844139
			CHANNELS 6 Xposition Yposition Zposition Zrotation Yrotation Xrotation
			JOINT Spine2
			{
				OFFSET 0.000000 0.000000 11.682266
				CHANNELS 6 Xposition Yposition Zposition Zrotation Yrotation Xrotation
				JOINT Spine3
				{
					OFFSET 0.000000 0.000000 11.746696
					CHANNELS 6 Xposition Yposition Zposition Zrotation Yrotation Xrotation
					JOINT Neck
					{
						OFFSET 0.000000 0.000000 17.658264
						CHANNELS 6 Xposition Yposition Zposition Zrotation Yrotation Xrotation
						JOINT Neck1
						{
							OFFSET 0.000000 0.000000 5.101517
							CHANNELS 6 Xposition Yposition Zposition Zrotation Yrotation Xrotation
							JOINT Head
							{
								OFFSET 0.000000 0.000000 5.101517
								CHANNELS 6 Xposition Yposition Zposition Zrotation Yrotation Xrotation
								JOINT HeadEnd
								{
									OFFSET 0.000000 0.000000 11.655090
									CHANNELS 6 Xposition Yposition Zposition Zrotation Yrotation Xrotation
									End Site
									{
										OFFSET 0.000000 0.000000 0.100006
									}
								}
							}
						}
					}
					JOINT RightShoulder
					{
						OFFSET -2.625397 0.000000 11.175217
						CHANNELS 6 Xposition Yposition Zposition Zrotation Yrotation Xrotation
						JOINT RightArm
						{
							OFFSET 0.000000 0.000000 10.434708
							CHANNELS 6 Xposition Yposition Zposition Zrotation Yrotation Xrotation
							JOINT RightForeArm
							{
								OFFSET 0.000000 0.000000 29.628418
								CHANNELS 6 Xposition Yposition Zposition Zrotation Yrotation Xrotation
								JOINT RightHand
								{
									OFFSET 0.000000 0.000000 22.857605
									CHANNELS 6 Xposition Yposition Zposition Zrotation Yrotation Xrotation
									JOINT RightHandThumb1
									{
										OFFSET -2.867310 -2.944275 3.959564
										CHANNELS 6 Xposition Yposition Zposition Zrotation Yrotation Xrotation
										JOINT RightHandThumb2
										{
											OFFSET 0.000000 0.000000 3.350403
											CHANNELS 6 Xposition Yposition Zposition Zrotation Yrotation Xrotation
											JOINT RightHandThumb3
											{
												OFFSET 0.000000 0.000000 3.756516
												CHANNELS 6 Xposition Yposition Zposition Zrotation Yrotation Xrotation
												JOINT RightHandThumb4
												{
													OFFSET 0.000000 0.000000 3.147339
													CHANNELS 6 Xposition Yposition Zposition Zrotation Yrotation Xrotation
													End Site
													{
														OFFSET 0.000000 0.000000 0.100006
													}
												}
											}
										}
									}
									JOINT RightHandIndex1
									{
										OFFSET -0.086761 -2.345276 10.030899
										CHANNELS 6 Xposition Yposition Zposition Zrotation Yrotation Xrotation
										JOINT RightHandIndex2
										{
											OFFSET 0.000000 0.000000 4.061096
											CHANNELS 6 Xposition Yposition Zposition Zrotation Yrotation Xrotation
											JOINT RightHandIndex3
											{
												OFFSET 0.000000 0.000000 3.248871
												CHANNELS 6 Xposition Yposition Zposition Zrotation Yrotation Xrotation
												JOINT RightHandIndex4
												{
													OFFSET 0.000000 0.000000 2.639709
													CHANNELS 6 Xposition Yposition Zposition Zrotation Yrotation Xrotation
													End Site
													{
														OFFSET 0.000000 0.000000 0.100006
													}
												}
											}
										}
									}
									JOINT RightHandMiddle1
									{
										OFFSET 0.104095 -0.006775 9.502945
										CHANNELS 6 Xposition Yposition Zposition Zrotation Yrotation Xrotation
										JOINT RightHandMiddle2
										{
											OFFSET 0.000000 0.000000 4.568726
											CHANNELS 6 Xposition Yposition Zposition Zrotation Yrotation Xrotation
											JOINT RightHandMiddle3
											{
												OFFSET 0.000000 0.000000 3.654984
												CHANNELS 6 Xposition Yposition Zposition Zrotation Yrotation Xrotation
												JOINT RightHandMiddle4
												{
													OFFSET 0.000000 0.000000 2.741241
													CHANNELS 6 Xposition Yposition Zposition Zrotation Yrotation Xrotation
													End Site
													{
														OFFSET 0.000000 0.000000 0.100006
													}
												}
											}
										}
									}
									JOINT RightHandRing1
									{
										OFFSET 0.086761 2.267456 8.921707
										CHANNELS 6 Xposition Yposition Zposition Zrotation Yrotation Xrotation
										JOINT RightHandRing2
										{
											OFFSET 0.000000 0.000000 4.061096
											CHANNELS 6 Xposition Yposition Zposition Zrotation Yrotation Xrotation
											JOINT RightHandRing3
											{
												OFFSET 0.000000 0.000000 3.654984
												CHANNELS 6 Xposition Yposition Zposition Zrotation Yrotation Xrotation
												JOINT RightHandRing4
												{
													OFFSET 0.000000 0.000000 2.741241
													CHANNELS 6 Xposition Yposition Zposition Zrotation Yrotation Xrotation
													End Site
													{
														OFFSET 0.000000 0.000000 0.100006
													}
												}
											}
										}
									}
									JOINT RightHandPinky1
									{
										OFFSET -0.173492 4.467224 7.976990
										CHANNELS 6 Xposition Yposition Zposition Zrotation Yrotation Xrotation
										JOINT RightHandPinky2
										{
											OFFSET 0.000000 0.000000 3.350403
											CHANNELS 6 Xposition Yposition Zposition Zrotation Yrotation Xrotation
											JOINT RightHandPinky3
											{
												OFFSET 0.000000 0.000000 2.842758
												CHANNELS 6 Xposition Yposition Zposition Zrotation Yrotation Xrotation
												JOINT RightHandPinky4
												{
													OFFSET 0.000000 0.000000 2.639709
													CHANNELS 6 Xposition Yposition Zposition Zrotation Yrotation Xrotation
													End Site
													{
														OFFSET 0.000000 0.000000 0.100006
													}
												}
											}
										}
									}
									JOINT RightForeArmEnd
									{
										OFFSET 0.000000 0.000000 0.000000
										CHANNELS 6 Xposition Yposition Zposition Zrotation Yrotation Xrotation
										End Site
										{
											OFFSET 0.000000 0.000000 0.100006
										}
									}
								}
								JOINT RightArmEnd
								{
									OFFSET 0.000000 0.000000 0.000000
									CHANNELS 6 Xposition Yposition Zposition Zrotation Yrotation Xrotation
									End Site
									{
										OFFSET 0.000000 0.000000 0.100006
									}
								}
							}
						}
					}
					JOINT LeftShoulder
					{
						OFFSET 2.625397 0.000000 11.175217
						CHANNELS 6 Xposition Yposition Zposition Zrotation Yrotation Xrotation
						JOINT LeftArm
						{
							OFFSET 0.000000 0.000000 10.813629
							CHANNELS 6 Xposition Yposition Zposition Zrotation Yrotation Xrotation
							JOINT LeftForeArm
							{
								OFFSET 0.000000 0.000000 28.724777
								CHANNELS 6 Xposition Yposition Zposition Zrotation Yrotation Xrotation
								JOINT LeftHand
								{
									OFFSET 0.644379 0.328857 25.716171
									CHANNELS 6 Xposition Yposition Zposition Zrotation Yrotation Xrotation
									JOINT LeftHandThumb1
									{
										OFFSET 2.867310 -2.944275 3.959564
										CHANNELS 6 Xposition Yposition Zposition Zrotation Yrotation Xrotation
										JOINT LeftHandThumb2
										{
											OFFSET 0.000000 0.000000 3.350403
											CHANNELS 6 Xposition Yposition Zposition Zrotation Yrotation Xrotation
											JOINT LeftHandThumb3
											{
												OFFSET 0.000000 0.000000 3.756516
												CHANNELS 6 Xposition Yposition Zposition Zrotation Yrotation Xrotation
												JOINT LeftHandThumb4
												{
													OFFSET 0.000000 0.000000 3.100006
													CHANNELS 6 Xposition Yposition Zposition Zrotation Yrotation Xrotation
													End Site
													{
														OFFSET 0.000000 0.000000 0.100006
													}
												}
											}
										}
									}
									JOINT LeftHandIndex1
									{
										OFFSET 0.086761 -2.345276 10.030899
										CHANNELS 6 Xposition Yposition Zposition Zrotation Yrotation Xrotation
										JOINT LeftHandIndex2
										{
											OFFSET 0.000000 0.000000 4.061096
											CHANNELS 6 Xposition Yposition Zposition Zrotation Yrotation Xrotation
											JOINT LeftHandIndex3
											{
												OFFSET 0.000000 0.000000 3.248871
												CHANNELS 6 Xposition Yposition Zposition Zrotation Yrotation Xrotation
												JOINT LeftHandIndex4
												{
													OFFSET 0.000000 0.000000 2.639709
													CHANNELS 6 Xposition Yposition Zposition Zrotation Yrotation Xrotation
													End Site
													{
														OFFSET 0.000000 0.000000 0.100006
													}
												}
											}
										}
									}
									JOINT LeftHandMiddle1
									{
										OFFSET -0.104095 -0.006775 9.502945
										CHANNELS 6 Xposition Yposition Zposition Zrotation Yrotation Xrotation
										JOINT LeftHandMiddle2
										{
											OFFSET 0.000000 0.000000 4.568726
											CHANNELS 6 Xposition Yposition Zposition Zrotation Yrotation Xrotation
											JOINT LeftHandMiddle3
											{
												OFFSET 0.000000 0.000000 3.654984
												CHANNELS 6 Xposition Yposition Zposition Zrotation Yrotation Xrotation
												JOINT LeftHandMiddle4
												{
													OFFSET 0.000000 0.000000 2.741241
													CHANNELS 6 Xposition Yposition Zposition Zrotation Yrotation Xrotation
													End Site
													{
														OFFSET 0.000000 0.000000 0.100006
													}
												}
											}
										}
									}
									JOINT LeftHandRing1
									{
										OFFSET -0.086761 2.267456 8.921707
										CHANNELS 6 Xposition Yposition Zposition Zrotation Yrotation Xrotation
										JOINT LeftHandRing2
										{
											OFFSET 0.000000 0.000000 4.061096
											CHANNELS 6 Xposition Yposition Zposition Zrotation Yrotation Xrotation
											JOINT LeftHandRing3
											{
												OFFSET 0.000000 0.000000 3.654984
												CHANNELS 6 Xposition Yposition Zposition Zrotation Yrotation Xrotation
												JOINT LeftHandRing4
												{
													OFFSET 0.000000 0.000000 2.741241
													CHANNELS 6 Xposition Yposition Zposition Zrotation Yrotation Xrotation
													End Site
													{
														OFFSET 0.000000 0.000000 0.100006
													}
												}
											}
										}
									}
									JOINT LeftHandPinky1
									{
										OFFSET 0.173492 4.467224 7.976990
										CHANNELS 6 Xposition Yposition Zposition Zrotation Yrotation Xrotation
										JOINT LeftHandPinky2
										{
											OFFSET 0.000000 0.000000 3.350403
											CHANNELS 6 Xposition Yposition Zposition Zrotation Yrotation Xrotation
											JOINT LeftHandPinky3
											{
												OFFSET 0.000000 0.000000 2.842758
												CHANNELS 6 Xposition Yposition Zposition Zrotation Yrotation Xrotation
												JOINT LeftHandPinky4
												{
													OFFSET 0.000000 0.000000 2.639709
													CHANNELS 6 Xposition Yposition Zposition Zrotation Yrotation Xrotation
													End Site
													{
														OFFSET 0.000000 0.000000 0.100006
													}
												}
											}
										}
									}
									JOINT LeftForeArmEnd
									{
										OFFSET 0.000000 0.000000 0.000000
										CHANNELS 6 Xposition Yposition Zposition Zrotation Yrotation Xrotation
										End Site
										{
											OFFSET 0.000000 0.000000 0.100006
										}
									}
								}
								JOINT LeftArmEnd
								{
									OFFSET 0.000000 0.000000 0.000000
									CHANNELS 6 Xposition Yposition Zposition Zrotation Yrotation Xrotation
									End Site
									{
										OFFSET 0.000000 0.000000 0.100006
									}
								}
							}
						}
					}
				}
			}
		}
	}
	JOINT RightUpLeg
	{
		OFFSET -11.289948 0.000000 0.000000
		CHANNELS 6 Xposition Yposition Zposition Zrotation Yrotation Xrotation
		JOINT RightLeg
		{
			OFFSET 0.000000 0.000000 -38.200329
			CHANNELS 6 Xposition Yposition Zposition Zrotation Yrotation Xrotation
			JOINT RightFoot
			{
				OFFSET 0.000000 0.000000 -39.900856
				CHANNELS 6 Xposition Yposition Zposition Zrotation Yrotation Xrotation
				JOINT RightToeBase
				{
					OFFSET 0.000000 -15.261658 0.000002
					CHANNELS 6 Xposition Yposition Zposition Zrotation Yrotation Xrotation
					JOINT RightToeBaseEnd
					{
						OFFSET 0.000000 -7.370728 0.000000
						CHANNELS 6 Xposition Yposition Zposition Zrotation Yrotation Xrotation
						End Site
						{
							OFFSET 0.000000 0.000000 0.100000
						}
					}
				}
				JOINT RightLegEnd
				{
					OFFSET 0.000000 0.000000 0.000000
					CHANNELS 6 Xposition Yposition Zposition Zrotation Yrotation Xrotation
					End Site
					{
						OFFSET 0.000000 0.000000 0.100000
					}
				}
			}
			JOINT RightUpLegEnd
			{
				OFFSET 0.000000 0.000000 0.000000
				CHANNELS 6 Xposition Yposition Zposition Zrotation Yrotation Xrotation
				End Site
				{
					OFFSET 0.000000 0.000000 0.099998
				}
			}
		}
	}
	JOINT LeftUpLeg
	{
		OFFSET 11.315674 0.000000 0.000000
		CHANNELS 6 Xposition Yposition Zposition Zrotation Yrotation Xrotation
		JOINT LeftLeg
		{
			OFFSET 0.000000 0.000000 -38.200329
			CHANNELS 6 Xposition Yposition Zposition Zrotation Yrotation Xrotation
			JOINT LeftFoot
			{
				OFFSET 0.000000 0.000000 -39.900856
				CHANNELS 6 Xposition Yposition Zposition Zrotation Yrotation Xrotation
				JOINT LeftToeBase
				{
					OFFSET 0.000000 -15.261658 0.000002
					CHANNELS 6 Xposition Yposition Zposition Zrotation Yrotation Xrotation
					JOINT LeftToeBaseEnd
					{
						OFFSET 0.000000 -7.539978 0.000000
						CHANNELS 6 Xposition Yposition Zposition Zrotation Yrotation Xrotation
						End Site
						{
							OFFSET 0.000000 0.000000 0.100000
						}
					}
				}
				JOINT LeftLegEnd
				{
					OFFSET 0.000000 0.000000 0.000000
					CHANNELS 6 Xposition Yposition Zposition Zrotation Yrotation Xrotation
					End Site
					{
						OFFSET 0.000000 0.000000 0.100000
					}
				}
			}
			JOINT LeftUpLegEnd
			{
				OFFSET 0.000000 0.000000 0.000000
				CHANNELS 6 Xposition Yposition Zposition Zrotation Yrotation Xrotation
				End Site
				{
					OFFSET 0.000000 0.000000 0.099998
				}
			}
		}
	}
}
MOTION
Frames: 2
Frame Time: 0.016667
-0.338348 -16.256470 87.090935 30.948017 -1.302102 -11.187537 0.000004 2.080086 8.814244 0.731103 -0.095948 8.467183 0.000007 0.000011 8.844151 0.938396 0.884427 3.660469 -0.000005 0.000005 11.682280 3.885710 1.447946 6.361628 0.000024 0.000023 11.746704 2.309694 1.478536 5.303985 -0.000004 0.000003 17.658268 -8.625221 -21.048855 -1.637827 0.000003 0.000021 5.101519 -2.800065 -3.333086 -8.120077 -0.000022 -0.000008 5.101534 -0.367112 -3.134353 -14.392325 -0.000013 0.000006 11.655050 -0.000001 0.000001 0.000000 -2.625402 0.000002 11.175236 13.317797 -85.367106 0.351828 0.000015 0.000016 10.434727 -52.480544 -58.338019 50.664960 -0.000004 0.000023 29.628418 26.101392 -0.491800 41.692287 -0.000042 0.000085 22.857582 16.813183 -6.228089 -1.268531 -2.867275 -2.944275 3.959518 31.530219 -18.328323 49.913964 0.000004 -0.000008 3.350422 -15.033108 9.283065 -26.791386 0.000008 -0.000008 3.756500 -9.970033 7.211242 -18.309601 0.000041 0.000014 3.147360 -0.000001 -0.000001 -0.000006 -0.086685 -2.345270 10.030895 -13.391517 -22.170562 4.637008 0.000005 0.000020 4.061110 0.178644 -15.916854 2.297013 -0.000002 -0.000006 3.248890 -0.321353 -15.916829 2.297012 -0.000010 -0.000001 2.639712 0.000000 0.000000 -0.000000 0.104088 -0.006807 9.502943 -7.776558 -21.534560 2.663584 0.000014 0.000019 4.568753 0.387587 -15.382751 0.827069 -0.000007 0.000019 3.654989 -0.108744 -15.382911 0.826015 0.000011 0.000004 2.741256 -0.000001 0.000002 -0.000003 0.086782 2.267442 8.921694 0.474225 -23.795126 0.074840 -0.000009 0.000009 4.061104 -0.846684 -16.837665 -1.059540 -0.000015 0.000014 3.655008 0.156697 -16.837745 -1.061058 0.000007 0.000011 2.741237 -0.000002 -0.000001 -0.000000 -0.173470 4.467210 7.976978 9.656854 -23.873675 -5.130002 0.000002 -0.000016 3.350410 -1.489656 -17.016364 -3.410466 0.000013 0.000010 2.842751 0.510340 -17.016373 -3.410464 0.000008 -0.000002 2.639683 0.000001 0.000004 -0.000001 0.000018 0.000009 -0.000015 -0.000003 -0.000001 -0.000004 -0.000011 -0.000011 -0.000011 0.000002 -0.000002 0.000000 2.625381 -0.000026 11.175216 -7.543760 78.577433 -0.423037 0.000000 -0.000006 10.813610 53.937167 60.942008 51.287201 -0.000015 0.000004 28.724707 -14.015934 -1.183368 89.285387 0.644368 0.328894 25.716190 -28.803690 -3.944693 -3.608005 2.867237 -2.944351 3.959518 -31.560112 21.435900 45.450418 -0.000008 -0.000023 3.350433 21.983509 -10.811047 -38.047740 -0.000034 0.000000 3.756546 14.503444 -9.107523 -25.919231 -0.000018 -0.000006 3.100008 -0.000000 0.000000 -0.000001 0.086727 -2.345286 10.030926 -1.575162 46.624196 -5.909713 -0.000095 0.000016 4.061142 -1.060795 33.079320 -5.252487 -0.000063 0.000003 3.248871 -1.560827 33.079245 -5.252488 -0.000016 0.000002 2.639709 -0.000000 0.000000 0.000000 -0.104134 -0.006795 9.502901 5.568713 46.552408 2.210337 -0.000011 -0.000069 4.568768 -0.078407 33.015700 -1.951544 -0.000024 0.000028 3.655016 -0.578436 33.015714 -1.951583 -0.000023 -0.000005 2.741255 0.000001 -0.000000 0.000000 -0.086784 2.267423 8.921730 19.890061 50.653817 16.505881 -0.000055 -0.000010 4.061138 -0.120394 36.923268 2.634304 -0.000067 0.000009 3.655020 0.879605 36.923262 2.634301 -0.000028 0.000000 2.741241 -0.000000 -0.000000 -0.000000 0.173531 4.467180 7.977036 33.113628 48.693624 29.300764 -0.000046 0.000011 3.350388 0.920972 37.523020 8.585036 -0.000048 0.000024 2.842773 2.920987 37.523017 8.585047 -0.000030 -0.000002 2.639696 0.000000 -0.000001 -0.000001 -0.000023 -0.000003 -0.000015 0.000000 -0.000002 -0.000003 -0.000020 0.000021 0.000005 -0.000003 0.000001 -0.000001 -11.289906 -0.000021 0.000011 -9.700683 13.154933 3.050105 0.000015 0.000055 -38.200275 -0.275250 0.178898 33.019986 -0.000043 -0.000068 -39.900864 -24.098723 -6.242218 18.980952 -0.000012 -15.261736 0.000042 0.929637 -0.085633 -23.429077 -0.000004 -7.370660 -0.000002 -0.000001 -0.000001 0.000004 -0.000004 0.000055 -0.000001 0.000001 0.000001 0.000003 0.000031 0.000113 -0.000009 0.000002 0.000000 -0.000004 11.315690 -0.000040 0.000015 -16.576341 2.961597 -3.748936 0.000003 0.000067 -38.200306 0.343241 -0.175704 27.107600 -0.000006 -0.000013 -39.900845 -0.233828 -3.359433 14.005131 0.000035 -15.261662 0.000009 -0.861154 0.205553 -21.329115 -0.000005 -7.539980 -0.000001 0.000000 0.000000 -0.000000 -0.000011 -0.000007 0.000000 0.000001 0.000000 -0.000002 -0.000007 -0.000006 -0.000007 0.000001 0.000000 -0.000000 
0.190948 -16.253540 87.098610 28.982135 -1.516654 -11.319985 0.000005 2.080094 8.814256 0.775099 0.236433 8.636999 0.000002 0.000016 8.844131 0.943663 1.034825 3.721390 -0.000020 0.000026 11.682274 3.468585 1.238592 6.436719 0.000010 0.000016 11.746689 2.139285 1.030171 5.405330 0.000000 -0.000076 17.658243 -7.835899 -20.867556 -2.008745 0.000005 -0.000031 5.101494 -1.939773 -3.521701 -8.179276 -0.000003 -0.000009 5.101530 -0.345348 -3.096317 -14.535419 0.000000 -0.000009 11.655078 0.000001 0.000000 0.000001 -2.625423 -0.000073 11.175215 13.171090 -85.578015 0.382050 0.000015 -0.000004 10.434708 -54.597114 -59.946822 52.061474 0.000008 0.000015 29.628420 26.177719 -0.489904 43.485800 -0.000042 0.000074 22.857603 16.943027 -4.700440 -1.014384 -2.867313 -2.944275 3.959549 31.530213 -18.328312 49.913950 -0.000023 -0.000023 3.350380 -15.033129 9.283059 -26.791412 -0.000019 0.000008 3.756531 -9.969972 7.211241 -18.309553 -0.000005 0.000009 3.147331 -0.000001 -0.000001 -0.000006 -0.086739 -2.345271 10.030880 -13.441840 -22.172650 6.646540 0.000011 0.000029 4.061092 0.169989 -16.127390 2.329029 -0.000010 0.000007 3.248863 -0.330149 -16.127202 2.329355 -0.000015 0.000006 2.639726 -0.000001 -0.000001 -0.000002 0.104095 -0.006746 9.502945 -7.816319 -21.640835 4.167617 0.000003 0.000012 4.568736 0.386305 -15.523318 0.834096 -0.000004 0.000028 3.654959 -0.113642 -15.523318 0.833973 -0.000011 0.000007 2.741239 -0.000001 0.000002 -0.000002 0.086765 2.267483 8.921702 0.506215 -23.685423 1.106807 0.000010 -0.000029 4.061106 -0.845642 -16.702403 -1.051580 -0.000013 0.000013 3.654994 0.156977 -16.702423 -1.052323 0.000005 -0.000001 2.741248 -0.000000 0.000002 -0.000003 -0.173485 4.467246 7.976978 9.734436 -23.491063 -4.177238 0.000023 -0.000030 3.350422 -1.514803 -16.607518 -3.323584 -0.000002 -0.000023 2.842777 0.485213 -16.607472 -3.323589 -0.000017 -0.000005 2.639691 0.000001 0.000001 -0.000002 -0.000013 0.000004 -0.000037 0.000001 -0.000000 -0.000001 0.000003 0.000024 0.000016 -0.000003 0.000003 -0.000000 2.625374 -0.000031 11.175213 -7.599668 78.443480 -0.424355 -0.000015 0.000006 10.813614 53.423742 59.831911 50.212453 -0.000032 0.000021 28.724722 -14.656691 -1.212148 90.359530 0.644330 0.328878 25.716160 -26.725620 -3.116870 -4.007451 2.867212 -2.944305 3.959549 -31.593358 21.810350 44.926597 -0.000015 -0.000069 3.350479 22.818818 -10.902799 -39.381501 -0.000042 -0.000015 3.756500 15.055187 -9.290218 -26.827704 -0.000044 -0.000007 3.100009 -0.000000 0.000002 -0.000001 0.086761 -2.345281 10.030930 -1.161352 49.696231 -4.970073 -0.000023 0.000027 4.061131 -1.296672 35.121796 -5.673151 -0.000032 -0.000028 3.248901 -1.796685 35.121796 -5.673158 -0.000017 -0.000005 2.639709 0.000001 -0.000000 -0.000000 -0.104107 -0.006767 9.502890 6.469565 49.660506 3.896999 -0.000015 -0.000044 4.568752 -0.171276 35.180389 -2.117146 0.000006 -0.000050 3.654985 -0.671260 35.180290 -2.117146 -0.000018 0.000014 2.741251 -0.000002 -0.000001 0.000000 -0.086758 2.267478 8.921715 22.045175 53.782026 20.128470 -0.000010 0.000014 4.061110 0.030594 39.389752 2.878678 -0.000043 0.000006 3.655006 1.030704 39.389322 2.878737 -0.000072 -0.000005 2.741254 0.000001 -0.000000 -0.000000 0.173515 4.467140 7.976959 35.810426 51.282027 34.136671 -0.000027 0.000029 3.350426 1.424496 40.005712 9.389035 -0.000027 0.000009 2.842773 3.424507 40.005661 9.389044 -0.000036 -0.000002 2.639706 0.000000 0.000001 -0.000001 -0.000025 -0.000002 -0.000030 -0.000000 -0.000001 0.000001 -0.000007 -0.000002 0.000000 0.000001 0.000000 -0.000001 -11.289928 -0.000010 -0.000010 -9.815039 13.296550 1.026547 0.000017 0.000067 -38.200306 0.291553 -0.207098 35.388074 0.000002 -0.000073 -39.900841 -24.570067 -2.496063 18.828924 0.000012 -15.261784 0.000050 0.483819 -1.034190 -23.720323 -0.000004 -7.370670 -0.000002 0.000001 -0.000001 0.000001 0.000004 -0.000012 0.000004 0.000002 -0.000001 -0.000001 0.000031 0.000065 0.000008 -0.000000 0.000001 -0.000001 11.315669 0.000010 0.000017 -15.793025 3.515649 -3.105612 -0.000010 0.000055 -38.200340 0.261122 -0.132289 26.866747 0.000003 -0.000029 -39.900841 1.116369 -3.449100 13.798852 0.000029 -15.261665 0.000032 -0.771750 0.150395 -21.153364 -0.000006 -7.539991 0.000000 0.000002 -0.000000 0.000000 -0.000006 -0.000002 0.000001 0.000000 0.000000 -0.000001 0.000002 0.000072 0.000005 -0.000002 0.000000 0.000000 
